<svg enable-background="new 0 0 34 39" viewBox="0 0 34 39" xmlns="http://www.w3.org/2000/svg" xmlns:xlink="http://www.w3.org/1999/xlink"><defs><path id="a" d="m16.6 2.3c7 0 12.7 5.7 12.7 12.7s-12.7 21.6-12.7 21.6-12.7-14.6-12.7-21.6 5.7-12.7 12.7-12.7m0-2c-8.1 0-14.7 6.6-14.7 14.7 0 7.6 11.9 21.4 13.2 22.9.4.4.9.7 1.5.7s1.1-.2 1.5-.7c1.4-1.5 13.2-15.3 13.2-22.9.1-8.1-6.5-14.7-14.7-14.7z"/><clipPath id="b"><use xlink:href="#a"/></clipPath></defs><use fill="#fff" xlink:href="#a"/><path clip-path="url(#b)" d="m29.4 15c0 7-12.7 21.6-12.7 21.6s-12.8-14.6-12.8-21.6 5.7-12.7 12.7-12.7 12.8 5.7 12.8 12.7z" fill="#fff"/><path d="m29.4 15c0 7-12.7 21.6-12.7 21.6s-12.8-14.6-12.8-21.6 5.7-12.7 12.7-12.7 12.8 5.7 12.8 12.7z" fill="#006ba6"/></svg>